{
	"patcher" : 	{
		"fileversion" : 1,
		"rect" : [ 907.0, 300.0, 640.0, 480.0 ],
		"bglocked" : 0,
		"defrect" : [ 907.0, 300.0, 640.0, 480.0 ],
		"openrect" : [ 0.0, 0.0, 0.0, 0.0 ],
		"openinpresentation" : 0,
		"default_fontsize" : 12.0,
		"default_fontface" : 0,
		"default_fontname" : "Arial",
		"gridonopen" : 0,
		"gridsize" : [ 9.0, 9.0 ],
		"gridsnaponopen" : 0,
		"toolbarvisible" : 1,
		"boxanimatetime" : 200,
		"imprint" : 0,
		"enablehscroll" : 1,
		"enablevscroll" : 1,
		"devicewidth" : 0.0,
		"boxes" : [ 			{
				"box" : 				{
					"maxclass" : "inlet",
					"outlettype" : [ "int" ],
					"patching_rect" : [ 396.0, 171.0, 25.0, 25.0 ],
					"numinlets" : 0,
					"id" : "obj-4",
					"numoutlets" : 1,
					"comment" : ""
				}

			}
, 			{
				"box" : 				{
					"maxclass" : "message",
					"text" : "play",
					"outlettype" : [ "" ],
					"fontsize" : 12.0,
					"patching_rect" : [ 216.0, 360.0, 50.0, 18.0 ],
					"numinlets" : 2,
					"id" : "obj-255",
					"fontname" : "Arial",
					"numoutlets" : 1
				}

			}
, 			{
				"box" : 				{
					"maxclass" : "newobj",
					"text" : "if $i1==3 then clear",
					"outlettype" : [ "" ],
					"fontsize" : 12.0,
					"patching_rect" : [ 252.0, 333.0, 113.0, 20.0 ],
					"numinlets" : 1,
					"id" : "obj-256",
					"fontname" : "Arial",
					"numoutlets" : 1
				}

			}
, 			{
				"box" : 				{
					"maxclass" : "newobj",
					"text" : "if $i1==2 then play",
					"outlettype" : [ "" ],
					"fontsize" : 12.0,
					"patching_rect" : [ 243.0, 306.0, 109.0, 20.0 ],
					"numinlets" : 1,
					"id" : "obj-257",
					"fontname" : "Arial",
					"numoutlets" : 1
				}

			}
, 			{
				"box" : 				{
					"maxclass" : "newobj",
					"text" : "if $i1==1 then stop",
					"outlettype" : [ "" ],
					"fontsize" : 12.0,
					"patching_rect" : [ 234.0, 279.0, 109.0, 20.0 ],
					"numinlets" : 1,
					"id" : "obj-258",
					"fontname" : "Arial",
					"numoutlets" : 1
				}

			}
, 			{
				"box" : 				{
					"maxclass" : "newobj",
					"text" : "if $i1==0 then record",
					"outlettype" : [ "" ],
					"fontsize" : 12.0,
					"patching_rect" : [ 216.0, 252.0, 121.0, 20.0 ],
					"numinlets" : 1,
					"id" : "obj-259",
					"fontname" : "Arial",
					"numoutlets" : 1
				}

			}
, 			{
				"box" : 				{
					"maxclass" : "message",
					"text" : "2",
					"outlettype" : [ "" ],
					"fontsize" : 12.0,
					"patching_rect" : [ 216.0, 225.0, 50.0, 18.0 ],
					"numinlets" : 2,
					"id" : "obj-261",
					"fontname" : "Arial",
					"numoutlets" : 1
				}

			}
, 			{
				"box" : 				{
					"maxclass" : "newobj",
					"text" : "if $i1==0 && $i2==0 then 2 else $i1",
					"outlettype" : [ "" ],
					"fontsize" : 12.0,
					"patching_rect" : [ 216.0, 198.0, 197.0, 20.0 ],
					"numinlets" : 2,
					"id" : "obj-263",
					"fontname" : "Arial",
					"numoutlets" : 1
				}

			}
, 			{
				"box" : 				{
					"maxclass" : "outlet",
					"patching_rect" : [ 216.0, 387.0, 25.0, 25.0 ],
					"numinlets" : 1,
					"id" : "obj-3",
					"numoutlets" : 0,
					"comment" : ""
				}

			}
, 			{
				"box" : 				{
					"maxclass" : "newobj",
					"text" : "r transport",
					"outlettype" : [ "" ],
					"fontsize" : 12.0,
					"patching_rect" : [ 216.0, 171.0, 65.0, 20.0 ],
					"numinlets" : 0,
					"id" : "obj-2",
					"fontname" : "Arial",
					"numoutlets" : 1
				}

			}
 ],
		"lines" : [ 			{
				"patchline" : 				{
					"source" : [ "obj-255", 0 ],
					"destination" : [ "obj-3", 0 ],
					"hidden" : 0,
					"midpoints" : [  ]
				}

			}
, 			{
				"patchline" : 				{
					"source" : [ "obj-2", 0 ],
					"destination" : [ "obj-263", 0 ],
					"hidden" : 0,
					"midpoints" : [  ]
				}

			}
, 			{
				"patchline" : 				{
					"source" : [ "obj-4", 0 ],
					"destination" : [ "obj-263", 1 ],
					"hidden" : 0,
					"midpoints" : [  ]
				}

			}
, 			{
				"patchline" : 				{
					"source" : [ "obj-263", 0 ],
					"destination" : [ "obj-261", 1 ],
					"hidden" : 0,
					"midpoints" : [  ]
				}

			}
, 			{
				"patchline" : 				{
					"source" : [ "obj-263", 0 ],
					"destination" : [ "obj-261", 0 ],
					"hidden" : 0,
					"midpoints" : [  ]
				}

			}
, 			{
				"patchline" : 				{
					"source" : [ "obj-261", 0 ],
					"destination" : [ "obj-259", 0 ],
					"hidden" : 0,
					"midpoints" : [  ]
				}

			}
, 			{
				"patchline" : 				{
					"source" : [ "obj-261", 0 ],
					"destination" : [ "obj-258", 0 ],
					"hidden" : 0,
					"midpoints" : [  ]
				}

			}
, 			{
				"patchline" : 				{
					"source" : [ "obj-261", 0 ],
					"destination" : [ "obj-257", 0 ],
					"hidden" : 0,
					"midpoints" : [  ]
				}

			}
, 			{
				"patchline" : 				{
					"source" : [ "obj-261", 0 ],
					"destination" : [ "obj-256", 0 ],
					"hidden" : 0,
					"midpoints" : [  ]
				}

			}
, 			{
				"patchline" : 				{
					"source" : [ "obj-256", 0 ],
					"destination" : [ "obj-255", 1 ],
					"hidden" : 0,
					"midpoints" : [  ]
				}

			}
, 			{
				"patchline" : 				{
					"source" : [ "obj-257", 0 ],
					"destination" : [ "obj-255", 1 ],
					"hidden" : 0,
					"midpoints" : [  ]
				}

			}
, 			{
				"patchline" : 				{
					"source" : [ "obj-258", 0 ],
					"destination" : [ "obj-255", 1 ],
					"hidden" : 0,
					"midpoints" : [  ]
				}

			}
, 			{
				"patchline" : 				{
					"source" : [ "obj-259", 0 ],
					"destination" : [ "obj-255", 1 ],
					"hidden" : 0,
					"midpoints" : [  ]
				}

			}
, 			{
				"patchline" : 				{
					"source" : [ "obj-259", 0 ],
					"destination" : [ "obj-255", 0 ],
					"hidden" : 0,
					"midpoints" : [  ]
				}

			}
, 			{
				"patchline" : 				{
					"source" : [ "obj-258", 0 ],
					"destination" : [ "obj-255", 0 ],
					"hidden" : 0,
					"midpoints" : [  ]
				}

			}
, 			{
				"patchline" : 				{
					"source" : [ "obj-257", 0 ],
					"destination" : [ "obj-255", 0 ],
					"hidden" : 0,
					"midpoints" : [  ]
				}

			}
, 			{
				"patchline" : 				{
					"source" : [ "obj-256", 0 ],
					"destination" : [ "obj-255", 0 ],
					"hidden" : 0,
					"midpoints" : [  ]
				}

			}
 ]
	}

}
